<?xml version="1.0" encoding="UTF-8" standalone="no"?> <svg id="Capa_1"
enable-background="new 0 0 512 512" height="512" viewBox="0 0 512 512"
width="512" xmlns="http://www.w3.org/2000/svg"><g><path style="fill:#000000;" d="m467
42h-26v-27c0-8.284-6.716-15-15-15s-15 6.716-15
15v27h-55v-27c0-8.284-6.716-15-15-15s-15 6.716-15
15v27h-55v-27c0-8.284-6.716-15-15-15s-15 6.716-15
15v27h-55v-27c0-8.284-6.716-15-15-15s-15 6.716-15
15v27h-55v-27c0-8.284-6.716-15-15-15s-15 6.716-15 15v27h-26c-24.813 0-45
20.187-45 45v380c0 24.813 20.187 45 45 45h422c24.813 0 45-20.187
45-45v-380c0-24.813-20.187-45-45-45zm15 425c0 8.271-6.729 15-15
15h-422c-8.271 0-15-6.729-15-15v-275h452zm0-305h-452v-75c0-8.271
6.729-15 15-15h26v30c-8.284 0-15 6.716-15 15s6.716 15 15 15h30c8.284 0
15-6.716 15-15s-6.716-15-15-15v-30h55v30c-8.284 0-15 6.716-15 15s6.716
15 15 15h30c8.284 0 15-6.716 15-15s-6.716-15-15-15v-30h55v30c-8.284 0-15
6.716-15 15s6.716 15 15 15h30c8.284 0 15-6.716
15-15s-6.716-15-15-15v-30h55v30c-8.284 0-15 6.716-15 15s6.716 15 15
15h30c8.284 0 15-6.716 15-15s-6.716-15-15-15v-30h55v30c-8.284 0-15
6.716-15 15s6.716 15 15 15h30c8.284 0 15-6.716
15-15s-6.716-15-15-15v-30h26c8.271 0 15 6.729 15 15z"/><path style="fill:#000000;" d="m83.5
322h70c8.284 0 15-6.716 15-15v-70c0-8.284-6.716-15-15-15h-70c-8.284 0-15
6.716-15 15v70c0 8.284 6.716 15 15 15zm15-70h40v40h-40z"/><path style="fill:#000000;" d="m221
322h70c8.284 0 15-6.716 15-15v-70c0-8.284-6.716-15-15-15h-70c-8.284 0-15
6.716-15 15v70c0 8.284 6.716 15 15 15zm15-70h40v40h-40z"/><path style="fill:#000000;" d="m83.5
452h70c8.284 0 15-6.716 15-15v-70c0-8.284-6.716-15-15-15h-70c-8.284 0-15
6.716-15 15v70c0 8.284 6.716 15 15 15zm15-70h40v40h-40z"/><path style="fill:#000000;" d="m221
452h70c8.284 0 15-6.716 15-15v-70c0-8.284-6.716-15-15-15h-70c-8.284 0-15
6.716-15 15v70c0 8.284 6.716 15 15 15zm15-70h40v40h-40z"/><path style="fill:#000000;"
d="m428.5 352h-70c-8.284 0-15 6.716-15 15v70c0 8.284 6.716 15 15
15h70c8.284 0 15-6.716 15-15v-70c0-8.284-6.716-15-15-15zm-15
70h-40v-40h40z"/><path style="fill:#000000;" d="m347.894 317.606c2.929 2.929 6.768 4.394
10.606 4.394s7.678-1.464 10.606-4.394l24.394-24.394 24.394 24.394c2.929
2.929 6.768 4.394 10.606 4.394s7.678-1.464 10.606-4.394c5.858-5.858
5.858-15.355 0-21.213l-24.393-24.393 24.394-24.394c5.858-5.858
5.858-15.355 0-21.213-5.857-5.858-15.355-5.858-21.213 0l-24.394
24.394-24.394-24.394c-5.857-5.858-15.355-5.858-21.213 0s-5.858 15.355 0
21.213l24.394 24.394-24.394 24.394c-5.858 5.857-5.858 15.355.001
21.212z"/></g></svg>